<svg id="Layer_1" data-name="Layer 1" xmlns="http://www.w3.org/2000/svg" viewBox="0 0 500 500"><defs><style>.cls-1{fill:#000101;}</style></defs><title>contact</title><path class="cls-1" d="M263.67,211.78c1.28-1.69,2.52-3.41,3.86-5.06,9-11.08,20.44-17.77,34.63-19.65A80.28,80.28,0,0,1,331.9,189c21.24,5.18,32,20,36.5,40.35a149.79,149.79,0,0,1,3.13,31.94c.14,28.72,0,57.44.13,86.15,0,4.14-.93,5.71-5.41,5.61q-19.62-.45-39.25,0c-4.52.09-5.87-1.22-5.84-5.78.21-25.44.13-50.89.08-76.33a91.77,91.77,0,0,0-1.89-20.58c-2.68-11.55-9.54-18.11-20.09-19.3-14.08-1.59-24.84,3.34-30,13.9a46.78,46.78,0,0,0-4.44,20.61c-.12,27.07-.26,54.15,0,81.23,0,5.18-1.61,6.37-6.46,6.25-12.89-.31-25.8-.24-38.7,0-3.92.07-5.38-.89-5.37-5.11q.19-76.33,0-152.67c0-3.4.78-4.79,4.51-4.73,13.08.22,26.17.2,39.26,0,3.58-.05,4.76,1,4.59,4.61-.26,5.42-.07,10.86-.07,16.3Z"/><path class="cls-1" d="M132.11,271.83c0-25.27.08-50.53-.08-75.8,0-4.08.83-5.7,5.36-5.6,13.44.32,26.9.26,40.35,0,3.93-.07,4.83,1.3,4.82,5q-.15,76.34,0,152.67c0,3.89-1.34,4.91-5,4.86-13.45-.19-26.91-.24-40.35,0-4.25.08-5.16-1.47-5.13-5.37C132.18,322.36,132.11,297.09,132.11,271.83Z"/><path class="cls-1" d="M128.34,139.13a29.07,29.07,0,1,1,28.94,29.21A29,29,0,0,1,128.34,139.13Z"/><path d="M479,0H21A21.07,21.07,0,0,0,0,21V479a21.07,21.07,0,0,0,21,21H479a21.07,21.07,0,0,0,21-21V21A21.07,21.07,0,0,0,479,0Zm-2.1,455.88a21.07,21.07,0,0,1-21,21H44.12a21.07,21.07,0,0,1-21-21V44.12a21.07,21.07,0,0,1,21-21H455.88a21.07,21.07,0,0,1,21,21Z"/></svg>