<svg id="Layer_1" data-name="Layer 1" xmlns="http://www.w3.org/2000/svg" viewBox="0 0 500 500"><title>contact</title><path d="M479,0H21A21.07,21.07,0,0,0,0,21V479a21.07,21.07,0,0,0,21,21H479a21.07,21.07,0,0,0,21-21V21A21.07,21.07,0,0,0,479,0Zm-2.1,455.88a21.07,21.07,0,0,1-21,21H44.12a21.07,21.07,0,0,1-21-21V44.12a21.07,21.07,0,0,1,21-21H455.88a21.07,21.07,0,0,1,21,21Z"/><path d="M105.72,298a33.94,33.94,0,0,1,23.78.69c10.09,3.88,16.87,11.42,22.33,20.49,13.41,22.3,35.43,31.52,60.89,26,5.58-1.22,8.78-3.45,8.92-9.86.11-4.68,1.62-9.44,3.18-13.94s3.94-8.65,5.7-12.42c-10.89-3.1-22.25-5.39-32.88-9.53-35.63-13.87-56.14-39.76-57-78.47a266.38,266.38,0,0,1,4.88-54.9c1.8-9.54,8.68-18.29,14-26.92,1.94-3.13,3.1-5.12,1.76-8.88-5.61-15.72-4.68-31.51.19-47.3,1.42-4.61,3.37-6,8.28-4.42,13.37,4.28,23.31,13,32.07,23.41,2.46,2.93,4.65,6.08,6.31,8.26,39.25-13.79,77.76-13.57,117.41-.22C336.43,95.55,349.08,81,370.11,77.16c6.89,17.46,8.77,34.48,2.8,51.81-1.48,4.29-.9,6.94,1.91,10.8C380.09,147,385.5,154.86,388,163.3a158.57,158.57,0,0,1,4.36,69.15c-6,38.85-31.4,60.46-67.64,71.05-7,2.06-14.33,3.23-21.89,4.89,8.31,13.69,10.73,28.33,10.53,43.73-.27,20.87,0,41.74,0,62.61v8.11H221V379.47c-13.63-.7-26.41,0-38.64-2.3-19.32-3.57-32.75-15.74-41.72-33.25a246.55,246.55,0,0,0-16.28-27.06c-3.18-4.6-8-8-12.07-12.05C110.38,302.92,108.57,301,105.72,298Z"/></svg>