<svg id="Layer_1" data-name="Layer 1" xmlns="http://www.w3.org/2000/svg" viewBox="0 0 500 500"><title>contact</title><path d="M403.27,145.92c-.89.93-1.54,1.64-2.21,2.31L270.78,278.49c-12.84,12.83-28.87,12.81-41.75-.06-10.79-10.77-21.42-21.7-32.39-32.27-7.8-7.52-15.2-15.43-22.9-23.06-19.53-19.35-38.82-38.95-58.42-58.24-5.7-5.61-11.46-11.17-17.16-16.78-1.87-1.84-1.73-2.31.73-3.11a13.65,13.65,0,0,1,4.22-.56q146.79,0,293.58,0A16.59,16.59,0,0,1,403.27,145.92Z"/><path d="M249.46,355.6H103.75a16.69,16.69,0,0,1-6.25-.75c-.15-.05-1.78-.23-.45-1.55q27-26.71,53.78-53.6,12.87-12.84,25.72-25.7c5.2-5.2,10.46-10.35,15.57-15.64,1.4-1.45,2.14-1.39,3.53,0q15.51,15.69,31.17,31.22c13.51,13.45,32.73,13.44,46.23,0q15.6-15.54,31.13-31.15c1.35-1.37,2.07-1.55,3.54-.07q46.93,47,94,93.93c1.37,1.37,1.63,2-.47,2.73a14.39,14.39,0,0,1-4.73.58Z"/><path d="M411.75,249.62q0,45.31,0,90.62a14.94,14.94,0,0,1-.93,5.44c-.49,1.3-1,1.36-1.82.5-1.41-1.47-2.69-3.06-4.13-4.5Q376.29,313,347.66,284.46c-10.94-10.95-21.83-21.95-32.88-32.78-2-2-1.2-3.22.32-4.4a45,45,0,0,0,4.27-4l88.7-88.6c.67-.66,1.24-2,2.21-1.65s1,1.78,1.2,2.78a20.11,20.11,0,0,1,.24,3.72q0,45,0,90.09Z"/><path d="M88.26,249.71V159.6a18.56,18.56,0,0,1,.53-5c.48-1.75,1-1.95,2.38-.58,4.29,4.4,8.68,8.71,13,13.06Q144.57,207.4,185,247.71c1.77,1.76,1.47,2.55-.1,4.12q-46.58,46.44-93.08,93c-.65.66-1.21,2-2.23,1.6s-.93-1.65-1.07-2.59a25.4,25.4,0,0,1-.27-4q0-45.06,0-90.11Z"/><path d="M479,0H21A21.07,21.07,0,0,0,0,21V479a21.07,21.07,0,0,0,21,21H479a21.07,21.07,0,0,0,21-21V21A21.07,21.07,0,0,0,479,0Zm-2.1,455.88a21.07,21.07,0,0,1-21,21H44.12a21.07,21.07,0,0,1-21-21V44.12a21.07,21.07,0,0,1,21-21H455.88a21.07,21.07,0,0,1,21,21Z"/></svg>