<svg id="Layer_1" data-name="Layer 1" xmlns="http://www.w3.org/2000/svg" viewBox="0 0 500 500"><title>contact</title><path d="M479,0H21A21.07,21.07,0,0,0,0,21V479a21.07,21.07,0,0,0,21,21H479a21.07,21.07,0,0,0,21-21V21A21.07,21.07,0,0,0,479,0Zm-2.1,455.88a21.07,21.07,0,0,1-21,21H44.12a21.07,21.07,0,0,1-21-21V44.12a21.07,21.07,0,0,1,21-21H455.88a21.07,21.07,0,0,1,21,21Z"/><path d="M318.76,78.09H181.24a24.63,24.63,0,0,0-24.56,24.56v294.7a24.63,24.63,0,0,0,24.56,24.56H318.76a24.63,24.63,0,0,0,24.56-24.56V102.65A24.63,24.63,0,0,0,318.76,78.09Zm-103,16.1h68.5v8.18h-68.5Zm34.25,322a14.74,14.74,0,1,1,14.74-14.73A14.74,14.74,0,0,1,250,416.18Zm73.13-37.38H176.87V119H323.13Z"/></svg>