<svg id="Layer_1" data-name="Layer 1" xmlns="http://www.w3.org/2000/svg" xmlns:xlink="http://www.w3.org/1999/xlink" viewBox="0 0 1920 1080"><defs><style>.cls-1{fill:none;}.cls-2{clip-path:url(#clip-path);}.cls-3{fill:#d8d8d8;}.cls-4{fill:#f7f7f7;}.cls-5{fill:#fff;}</style><clipPath id="clip-path"><rect class="cls-1" width="1920" height="1080"/></clipPath></defs><title>hero-image</title><g class="cls-2"><polygon class="cls-3" points="104.7 -36.49 30.37 -110.82 -98.37 17.92 79.47 -29.73 104.7 -36.49"/><polygon class="cls-3" points="212.5 466.1 498.63 389.44 523.87 382.67 295.93 154.74 289.17 179.98 212.5 466.1"/><polygon class="cls-3" points="1050.83 1304.43 1336.96 1227.76 1362.19 1221 1134.26 993.07 1127.5 1018.3 1050.83 1304.43"/><polygon class="cls-3" points="631.67 885.26 917.79 808.6 943.03 801.84 715.1 573.9 708.34 599.14 631.67 885.26"/><polygon class="cls-3" points="-360.86 620.3 -437.62 906.76 -503.37 1152.16 -473.56 1181.98 -228.16 1116.22 58.31 1039.46 -18.45 1325.93 -84.21 1571.33 -54.39 1601.14 191.01 1535.39 477.47 1458.63 400.71 1745.09 334.96 1990.49 364.77 2020.3 610.17 1954.55 896.63 1877.79 819.88 2164.25 772.44 2341.29 1066.46 2047.27 897 1877.81 896.75 1877.56 687.29 1668.1 477.7 1458.51 477.59 1458.4 267.99 1248.8 58.67 1039.48 58.29 1039.1 -151.03 829.78 -360.74 620.07 -74.28 543.32 212.19 466.56 135.43 753.02 58.81 1038.96 344.75 962.34 631.21 885.58 554.46 1172.05 477.74 1458.36 764.05 1381.64 1050.51 1304.88 973.76 1591.35 897.09 1877.47 1183.21 1800.81 1360.4 1753.33 1429.85 1683.88 1260.2 1514.22 1050.74 1304.77 1050.5 1304.52 841.04 1095.06 631.58 885.6 631.33 885.36 421.87 675.9 212.41 466.44 212.17 466.19 2.71 256.73 -167.24 86.79 -236.42 155.97 -284.01 333.58 -360.77 620.04 -530.63 450.18 -825.16 744.71 -647.32 697.06 -360.86 620.3"/><polygon class="cls-4" points="58.31 1039.46 -228.16 1116.22 -473.56 1181.98 -84.21 1571.33 -18.45 1325.93 58.31 1039.46"/><polygon class="cls-4" points="212.17 466.19 212.5 466.1 289.17 179.98 295.93 154.74 104.7 -36.49 79.47 -29.73 -98.37 17.92 -167.24 86.79 2.71 256.73 212.17 466.19"/><polygon class="cls-4" points="212.5 466.1 212.41 466.44 421.87 675.9 631.33 885.36 631.67 885.26 708.34 599.14 715.1 573.9 523.87 382.67 498.63 389.44 212.5 466.1"/><polygon class="cls-5" points="212.17 466.19 212.41 466.44 212.5 466.1 212.17 466.19"/><polygon points="212.5 466.1 212.17 466.19 212.41 466.44 212.5 466.1 212.5 466.1"/><polygon class="cls-4" points="631.67 885.26 631.58 885.6 841.04 1095.06 1050.5 1304.52 1050.83 1304.43 1127.5 1018.3 1134.26 993.07 943.03 801.84 917.79 808.6 631.67 885.26"/><polygon class="cls-5" points="631.33 885.36 631.58 885.6 631.67 885.26 631.33 885.36"/><polygon points="631.67 885.26 631.33 885.36 631.58 885.6 631.67 885.26 631.67 885.26"/><polygon class="cls-4" points="135.43 753.02 212.19 466.56 -74.28 543.32 -360.74 620.07 -151.03 829.78 58.29 1039.1 58.81 1038.96 135.43 753.02"/><polygon class="cls-4" points="554.46 1172.05 631.21 885.58 344.75 962.34 58.81 1038.96 58.67 1039.48 267.99 1248.8 477.59 1458.4 477.74 1458.36 554.46 1172.05"/><polygon class="cls-5" points="58.29 1039.1 58.67 1039.48 58.81 1038.96 58.29 1039.1"/><polygon points="58.81 1038.96 58.29 1039.1 58.67 1039.48 58.81 1038.96 58.81 1038.96"/><polygon class="cls-3" points="607.11 71.5 530.44 357.62 523.68 382.86 295.75 154.93 320.98 148.16 607.11 71.5"/><polygon class="cls-3" points="1445.44 909.82 1368.77 1195.95 1362.01 1221.18 1134.08 993.25 1159.31 986.49 1445.44 909.82"/><polygon class="cls-3" points="1026.27 490.66 949.61 776.79 942.85 802.02 714.91 574.09 740.15 567.33 1026.27 490.66"/><polygon class="cls-3" points="761.31 -501.87 1047.77 -578.62 1293.17 -644.38 1322.99 -614.56 1257.23 -369.17 1180.47 -82.7 1466.94 -159.46 1712.34 -225.22 1742.15 -195.4 1676.39 50 1599.64 336.46 1886.1 259.7 2131.5 193.95 2161.31 223.76 2095.56 469.16 2018.8 755.62 2305.26 678.87 2482.3 631.43 2188.28 925.45 2018.82 755.99 2018.57 755.75 1809.11 546.29 1599.52 336.69 1599.41 336.58 1389.81 126.98 1180.49 -82.34 1180.11 -82.72 970.79 -292.04 761.08 -501.75 684.32 -215.28 607.57 71.18 894.03 -5.58 1179.97 -82.2 1103.35 203.74 1026.59 490.2 1313.06 413.45 1599.37 336.73 1522.65 623.04 1445.89 909.5 1732.36 832.75 2018.48 756.08 1941.82 1042.21 1894.34 1219.39 1824.88 1288.85 1655.23 1119.19 1445.77 909.73 1445.53 909.49 1236.07 700.03 1026.61 490.57 1026.36 490.32 816.9 280.87 607.45 71.41 607.2 71.16 397.74 -138.3 227.79 -308.25 296.98 -377.43 474.59 -425.02 761.05 -501.77 591.19 -671.64 885.72 -966.17 838.07 -788.33 761.31 -501.87"/><polygon class="cls-4" points="1599.64 336.46 1676.39 50 1742.15 -195.4 2131.5 193.95 1886.1 259.7 1599.64 336.46"/><polygon class="cls-4" points="607.2 71.16 607.11 71.5 320.98 148.16 295.75 154.93 104.52 -36.31 111.28 -61.54 158.93 -239.38 227.79 -308.25 397.74 -138.3 607.2 71.16"/><polygon class="cls-4" points="607.11 71.5 607.45 71.41 816.9 280.87 1026.36 490.32 1026.27 490.66 740.15 567.33 714.91 574.09 523.68 382.86 530.44 357.62 607.11 71.5"/><polygon class="cls-5" points="607.2 71.16 607.45 71.41 607.11 71.5 607.2 71.16"/><polygon points="607.2 71.16 607.11 71.5 607.45 71.41 607.2 71.16 607.2 71.16"/><polygon class="cls-4" points="1026.27 490.66 1026.61 490.57 1236.07 700.03 1445.53 909.49 1445.44 909.82 1159.31 986.49 1134.08 993.25 942.85 802.02 949.61 776.79 1026.27 490.66"/><polygon class="cls-5" points="1026.36 490.32 1026.61 490.57 1026.27 490.66 1026.36 490.32"/><polygon points="1026.36 490.32 1026.27 490.66 1026.61 490.57 1026.36 490.32 1026.36 490.32"/><polygon class="cls-4" points="1445.44 909.82 1445.77 909.73 1655.23 1119.19 1824.88 1288.85 1755.51 1358.22 1578.47 1405.65 1553.24 1412.42 1362.01 1221.18 1368.77 1195.95 1445.44 909.82"/><polygon class="cls-5" points="1445.53 909.49 1445.77 909.73 1445.44 909.82 1445.53 909.49"/><polygon points="1445.53 909.49 1445.44 909.82 1445.77 909.73 1445.53 909.49 1445.53 909.49"/><polygon class="cls-4" points="894.03 -5.58 607.57 71.18 684.32 -215.28 761.08 -501.75 970.79 -292.04 1180.11 -82.72 1179.97 -82.2 894.03 -5.58"/><polygon class="cls-4" points="1732.36 832.75 1445.89 909.5 1522.65 623.04 1599.37 336.73 1599.52 336.69 1809.11 546.29 2018.57 755.75 2018.48 756.08 1732.36 832.75"/><polygon class="cls-4" points="1313.06 413.45 1026.59 490.2 1103.35 203.74 1179.97 -82.2 1180.49 -82.34 1389.81 126.98 1599.41 336.58 1599.37 336.73 1313.06 413.45"/><polygon class="cls-5" points="1599.41 336.58 1599.52 336.69 1599.37 336.73 1599.41 336.58"/><polygon points="1599.41 336.58 1599.37 336.73 1599.52 336.69 1599.41 336.58 1599.41 336.58"/><polygon class="cls-4" points="2018.48 756.08 2018.82 755.99 2188.28 925.45 1894.34 1219.39 1941.82 1042.21 2018.48 756.08"/></g></svg>