<svg id="Layer_1" data-name="Layer 1" xmlns="http://www.w3.org/2000/svg" viewBox="0 0 56.49 19.45"><defs><style>.cls-1{fill:#fff;}</style></defs><title>logo</title><path class="cls-1" d="M8.08,8.65a.17.17,0,0,1,.12,0L8.49,9a4.5,4.5,0,0,1-.7.61,3.89,3.89,0,0,1-.82.47,4.68,4.68,0,0,1-1,.3,6,6,0,0,1-1.17.1,5,5,0,0,1-1.95-.37A4.43,4.43,0,0,1,1.34,9.06a4.81,4.81,0,0,1-1-1.66A6.2,6.2,0,0,1,0,5.24,5.81,5.81,0,0,1,.37,3.11a4.8,4.8,0,0,1,1-1.66A4.56,4.56,0,0,1,3,.38,5.41,5.41,0,0,1,5,0a6.43,6.43,0,0,1,1,.08,5.4,5.4,0,0,1,.86.24,4.94,4.94,0,0,1,.76.39,5.71,5.71,0,0,1,.7.54l-.23.32A.2.2,0,0,1,8,1.66a.36.36,0,0,1-.17-.08L7.54,1.4l-.38-.25A3.3,3.3,0,0,0,6.63.9a4.65,4.65,0,0,0-.7-.19A5,5,0,0,0,5,.64,4.53,4.53,0,0,0,3.31,1,3.77,3.77,0,0,0,2,1.88a4.15,4.15,0,0,0-.88,1.45A5.5,5.5,0,0,0,.76,5.24a5.8,5.8,0,0,0,.31,1.94,4.19,4.19,0,0,0,.87,1.45,3.73,3.73,0,0,0,1.3.91,4.14,4.14,0,0,0,1.62.31,5.9,5.9,0,0,0,1-.07,3.82,3.82,0,0,0,.79-.22,3.36,3.36,0,0,0,.68-.35,5.36,5.36,0,0,0,.61-.5l.07,0Z"/><path class="cls-1" d="M22.32,5.24A6.44,6.44,0,0,1,22,7.4a4.9,4.9,0,0,1-1,1.65,4.41,4.41,0,0,1-1.55,1.06,5.51,5.51,0,0,1-4,0,4.38,4.38,0,0,1-1.54-1.06,4.92,4.92,0,0,1-1-1.65,6.2,6.2,0,0,1-.36-2.16,6.14,6.14,0,0,1,.36-2.15,4.92,4.92,0,0,1,1-1.65A4.38,4.38,0,0,1,15.45.38a5.44,5.44,0,0,1,4,0A4.44,4.44,0,0,1,21,1.44a4.8,4.8,0,0,1,1,1.65A6.38,6.38,0,0,1,22.32,5.24Zm-.77,0a5.84,5.84,0,0,0-.29-1.93,4.22,4.22,0,0,0-.84-1.45A3.64,3.64,0,0,0,19.12,1,4.39,4.39,0,0,0,17.43.64,4.28,4.28,0,0,0,15.76,1a3.77,3.77,0,0,0-1.31.91,4.41,4.41,0,0,0-.85,1.45,5.83,5.83,0,0,0-.3,1.93,5.75,5.75,0,0,0,.3,1.93,4.41,4.41,0,0,0,.85,1.45,3.64,3.64,0,0,0,1.31.91,4.47,4.47,0,0,0,1.67.31,4.58,4.58,0,0,0,1.69-.31,3.52,3.52,0,0,0,1.3-.91,4.22,4.22,0,0,0,.84-1.45A5.76,5.76,0,0,0,21.55,5.24Z"/><path class="cls-1" d="M28,5.73v4.64H27.3V.12h2.62A4.24,4.24,0,0,1,32.57.8a2.39,2.39,0,0,1,.88,2,2.92,2.92,0,0,1-.2,1.08,2.73,2.73,0,0,1-.58.85,3.33,3.33,0,0,1-.92.6,4.05,4.05,0,0,1-1.21.31,1.21,1.21,0,0,1,.31.29l3.53,4.43h-.65a.45.45,0,0,1-.2,0,.67.67,0,0,1-.16-.14L30.09,6a.69.69,0,0,0-.27-.22,1.14,1.14,0,0,0-.44-.07Zm0-.55h1.79A4.19,4.19,0,0,0,31.05,5,2.53,2.53,0,0,0,32,4.55a1.93,1.93,0,0,0,.57-.73,2.29,2.29,0,0,0,.2-1A1.89,1.89,0,0,0,32,1.23,3.52,3.52,0,0,0,29.92.7H28Z"/><path class="cls-1" d="M44.73.12V.73h-5.4V4.88h4.5v.6h-4.5V9.76h5.4v.61H38.58V.12Z"/><path class="cls-1" d="M52.7,6.14v4.23H52V6.14l-3.79-6h.65a.27.27,0,0,1,.16,0,.58.58,0,0,1,.12.14L52,5a3.58,3.58,0,0,1,.18.32c0,.11.09.21.13.32,0-.11.08-.21.13-.32L52.63,5,55.56.3a.36.36,0,0,1,.11-.13.25.25,0,0,1,.17-.05h.65Z"/><path class="cls-1" d="M4.21,13.16a.14.14,0,0,1-.13.08.28.28,0,0,1-.17-.09,1.87,1.87,0,0,0-.28-.2,1.8,1.8,0,0,0-.44-.21,2,2,0,0,0-.65-.1,2,2,0,0,0-.68.11,1.69,1.69,0,0,0-.49.3,1.43,1.43,0,0,0-.3.44A1.39,1.39,0,0,0,1,14a1.05,1.05,0,0,0,.15.59,1.27,1.27,0,0,0,.4.4,2.52,2.52,0,0,0,.57.28l.65.22c.23.08.45.16.66.25a2.66,2.66,0,0,1,.57.33,1.6,1.6,0,0,1,.4.49,1.61,1.61,0,0,1,.15.73,2.32,2.32,0,0,1-.15.84,2,2,0,0,1-.44.68,2.18,2.18,0,0,1-.71.46,2.61,2.61,0,0,1-1,.16,2.81,2.81,0,0,1-1.21-.24,2.78,2.78,0,0,1-.88-.68l.14-.22a.17.17,0,0,1,.14-.08s.06,0,.11.06l.17.15.24.19a1.69,1.69,0,0,0,.33.19,2.05,2.05,0,0,0,.42.15,2.26,2.26,0,0,0,.55.06A2,2,0,0,0,3,18.9a1.52,1.52,0,0,0,.56-.35A1.45,1.45,0,0,0,3.93,18a1.75,1.75,0,0,0,.12-.65,1,1,0,0,0-.16-.61,1.3,1.3,0,0,0-.4-.41,2.5,2.5,0,0,0-.57-.27l-.65-.22a6.21,6.21,0,0,1-.65-.23,2.24,2.24,0,0,1-.57-.33,1.71,1.71,0,0,1-.41-.51A1.69,1.69,0,0,1,.49,14a1.8,1.8,0,0,1,.14-.68A1.74,1.74,0,0,1,1,12.78a2,2,0,0,1,.65-.41,2.33,2.33,0,0,1,.87-.15,2.78,2.78,0,0,1,1,.17,2.46,2.46,0,0,1,.8.54Z"/><path class="cls-1" d="M7.46,15.56H8l.13,0,.11-.06.1-.09,2.86-2.94a.6.6,0,0,1,.14-.11.43.43,0,0,1,.17,0H12L8.88,15.47l-.17.16a.51.51,0,0,1-.16.09.51.51,0,0,1,.18.09A1.25,1.25,0,0,1,8.9,16l3.26,3.4h-.41a.44.44,0,0,1-.19,0l-.11-.1-3-3.06-.1-.1L8.25,16l-.14,0-.2,0H7.46v3.41H7V12.29h.51Z"/><path class="cls-1" d="M14.89,19.37h-.52V12.3h.52Z"/><path class="cls-1" d="M23.92,15.83a4.29,4.29,0,0,1-.24,1.48A3.27,3.27,0,0,1,23,18.42a3,3,0,0,1-1.07.71,3.75,3.75,0,0,1-1.37.24H18V12.3h2.58a3.75,3.75,0,0,1,1.37.24,3.13,3.13,0,0,1,1.07.71,3.47,3.47,0,0,1,.69,1.11A4.28,4.28,0,0,1,23.92,15.83Zm-.53,0a4.16,4.16,0,0,0-.2-1.32,2.9,2.9,0,0,0-.58-1,2.56,2.56,0,0,0-.9-.61,3.11,3.11,0,0,0-1.16-.21H18.48V19h2.07a3.11,3.11,0,0,0,1.16-.21,2.44,2.44,0,0,0,.9-.61,2.8,2.8,0,0,0,.58-1A4.18,4.18,0,0,0,23.39,15.83Z"/><path class="cls-1" d="M29.89,17.61l.06-.15a1,1,0,0,1,.07-.15l2.78-4.92s.05-.07.08-.08h.47v7.07H32.9v-6a2.62,2.62,0,0,1,0-.27L30.13,18a.22.22,0,0,1-.2.13h-.08a.21.21,0,0,1-.2-.13l-2.86-5a2.72,2.72,0,0,1,0,.28v6h-.44V12.3h.46s.05,0,.08.08l2.86,4.92C29.81,17.41,29.85,17.51,29.89,17.61Z"/><path class="cls-1" d="M42.55,15.83a4.35,4.35,0,0,1-.25,1.49,3.11,3.11,0,0,1-.69,1.14,3,3,0,0,1-1.06.73,3.65,3.65,0,0,1-1.38.26,3.51,3.51,0,0,1-1.36-.26,3,3,0,0,1-1.07-.73,3.11,3.11,0,0,1-.69-1.14,4.54,4.54,0,0,1,0-3,3.29,3.29,0,0,1,.69-1.14,3.09,3.09,0,0,1,1.07-.73,3.51,3.51,0,0,1,1.36-.26,3.65,3.65,0,0,1,1.38.26,3,3,0,0,1,1.06.73,3.29,3.29,0,0,1,.69,1.14A4.38,4.38,0,0,1,42.55,15.83Zm-.53,0a4,4,0,0,0-.21-1.33,3,3,0,0,0-.58-1,2.42,2.42,0,0,0-.89-.62,2.94,2.94,0,0,0-1.17-.22,2.88,2.88,0,0,0-1.15.22,2.46,2.46,0,0,0-.9.62,3,3,0,0,0-.59,1,4,4,0,0,0-.2,1.33,4,4,0,0,0,.2,1.34,2.87,2.87,0,0,0,.59,1,2.37,2.37,0,0,0,.9.63,3.06,3.06,0,0,0,1.15.21,3.13,3.13,0,0,0,1.17-.21,2.34,2.34,0,0,0,.89-.63,2.85,2.85,0,0,0,.58-1A4,4,0,0,0,42,15.83Z"/><path class="cls-1" d="M45.66,16.17v3.2h-.51V12.3H47a3,3,0,0,1,1.83.47,1.67,1.67,0,0,1,.6,1.39,2,2,0,0,1-.14.74,1.81,1.81,0,0,1-.4.59,2.28,2.28,0,0,1-.63.41,2.73,2.73,0,0,1-.84.21,1,1,0,0,1,.22.2L50,19.37h-.44a.29.29,0,0,1-.14,0,.26.26,0,0,1-.11-.1l-2.27-2.87a.6.6,0,0,0-.18-.15.78.78,0,0,0-.3,0Zm0-.38h1.23a2.76,2.76,0,0,0,.84-.11,1.7,1.7,0,0,0,.63-.32,1.42,1.42,0,0,0,.4-.51,1.53,1.53,0,0,0,.13-.66,1.3,1.3,0,0,0-.49-1.12A2.43,2.43,0,0,0,47,12.7h-1.3Z"/><path class="cls-1" d="M56.34,12.3v.42H52.61v2.86h3.11V16H52.61V19h3.73v.42H52.1V12.3Z"/></svg>